HIERARCHY
ROOT Hips
{
	OFFSET -3.958830 18.904000 13.208200
	CHANNELS 6 Xposition Yposition Zposition Zrotation Yrotation Xrotation 
	JOINT LHipJoint
	{
		OFFSET 0.000000 0.000000 0.000000
		CHANNELS 3 Zrotation Yrotation Xrotation
		JOINT LeftUpLeg
		{
			OFFSET 1.800000 -1.400000 0.085000
			CHANNELS 3 Zrotation Yrotation Xrotation
			JOINT LeftLeg
			{
				OFFSET 2.215000 -6.000000 0.000000
				CHANNELS 3 Zrotation Yrotation Xrotation
				JOINT LeftFoot
				{
					OFFSET 2.500000 -6.900000 0.000000
					CHANNELS 3 Zrotation Yrotation Xrotation
					JOINT LeftToeBase
					{
						OFFSET 0.200000 -0.500000 1.950000
						CHANNELS 3 Zrotation Yrotation Xrotation
						End Site
						{
							OFFSET 0.000000 0.000000 0.000000
						}
					}
				}
			}
		}
	}
	JOINT RHipJoint
	{
		OFFSET 0.000000 0.000000 0.000000
		CHANNELS 3 Zrotation Yrotation Xrotation
		JOINT RightUpLeg
		{
			OFFSET -1.800000 -1.400000 0.085000
			CHANNELS 3 Zrotation Yrotation Xrotation
			JOINT RightLeg
			{
				OFFSET -2.215000 -6.000000 0.000000
				CHANNELS 3 Zrotation Yrotation Xrotation
				JOINT RightFoot
				{
					OFFSET -2.500000 -6.900000 0.000000
					CHANNELS 3 Zrotation Yrotation Xrotation
					JOINT RightToeBase
					{
						OFFSET -0.200000 -0.500000 1.950000
						CHANNELS 3 Zrotation Yrotation Xrotation
						End Site
						{
							OFFSET 0.000000 0.000000 0.000000
						}
					}
				}
			}
		}
	}
	JOINT LowerBack
	{
		OFFSET 0.000000 0.000000 0.000000
		CHANNELS 3 Zrotation Yrotation Xrotation
		JOINT Spine
		{
			OFFSET -0.087000 1.940000 -0.288900
			CHANNELS 3 Zrotation Yrotation Xrotation
			JOINT Spine1
			{
				OFFSET 0.000000 1.950000 0.060000
				CHANNELS 3 Zrotation Yrotation Xrotation
				JOINT Neck
				{
					OFFSET 0.000000 0.000000 0.000000
					CHANNELS 3 Zrotation Yrotation Xrotation
					JOINT Neck1
					{
						OFFSET 0.000000 1.600000 0.340000
						CHANNELS 3 Zrotation Yrotation Xrotation
						JOINT Head
						{
							OFFSET 0.000000 1.667000 -0.240000
							CHANNELS 3 Zrotation Yrotation Xrotation
							End Site
							{
								OFFSET 0.000000 0.000000 0.000000
							}
						}
					}
				}
				JOINT LeftShoulder
				{
					OFFSET 0.000000 0.000000 0.000000
					CHANNELS 3 Zrotation Yrotation Xrotation
					JOINT LeftArm
					{
						OFFSET 2.700000 1.550000 -0.730000
						CHANNELS 3 Zrotation Yrotation Xrotation
						JOINT LeftForeArm
						{
							OFFSET 5.450000 0.000000 0.000000
							CHANNELS 3 Zrotation Yrotation Xrotation
							JOINT LeftHand
							{
								OFFSET 3.450000 0.000000 0.000000
								CHANNELS 3 Zrotation Yrotation Xrotation
								JOINT LeftHandIndex1
								{
									OFFSET 0.750000 0.000000 0.000000
									CHANNELS 3 Zrotation Yrotation Xrotation
									End Site
									{
										OFFSET 0.000000 0.000000 0.000000
									}
								}
							}
						}
					}
				}
				JOINT RightShoulder
				{
					OFFSET 0.000000 0.000000 0.000000
					CHANNELS 3 Zrotation Yrotation Xrotation
					JOINT RightArm
					{
						OFFSET -2.700000 1.550000 -0.730000
						CHANNELS 3 Zrotation Yrotation Xrotation
						JOINT RightForeArm
						{
							OFFSET -5.450000 0.000000 0.000000
							CHANNELS 3 Zrotation Yrotation Xrotation
							JOINT RightHand
							{
								OFFSET -3.450000 0.000000 0.000000
								CHANNELS 3 Zrotation Yrotation Xrotation
								JOINT RightHandIndex1
								{
									OFFSET -0.750000 0.000000 0.000000
									CHANNELS 3 Zrotation Yrotation Xrotation
									End Site
									{
										OFFSET 0.000000 0.000000 0.000000
									}
								}
							}
						}
					}
				}
			}
		}
	}
}
MOTION
Frames: 12
Frame Time: 0.016667
0.882160 17.607590 -1.618980 -3.233911 12.594153 3.026267 -15.209645 13.260619 2.711569 11.262405 -1.821356 -21.292947 -4.857478 5.787060 14.061946 -0.504937 4.249512 3.246478 -0.536150 -0.681510 -0.442010 18.243395 -11.039930 2.201655 -8.832972 0.957794 -13.951742 4.622462 -4.858569 14.418803 0.468930 -3.893831 3.162471 -0.093630 0.995620 0.089720 -3.668806 -1.620727 -6.357330 6.504272 3.648110 1.512999 1.943125 2.929955 8.931869 -0.358529 -1.471016 -5.651025 -3.232974 9.403188 26.038285 -3.741250 13.068730 12.848610 -8.536311 7.137239 1.689860 -36.554890 -3.572390 -4.679642 14.891521 -75.624917 -13.314990 -4.320975 3.437237 -0.281690 0.812530 -0.733260 0.056960 9.470776 -6.363639 1.984267 53.699935 -6.098523 -18.554777 -36.736231 59.293620 -18.650656 1.666225 -1.468890 -0.557890 0.181550 0.400920 0.005840 
0.887780 17.608390 -1.618570 -3.241006 12.584992 3.071627 -15.211774 13.263086 2.711921 11.222058 -1.837299 -21.342446 -4.839590 5.795004 14.157146 -0.511839 4.257366 3.242081 -0.533420 -0.677200 -0.438630 18.242970 -11.036354 2.197462 -8.803090 0.975079 -14.037283 4.526408 -4.831691 14.472709 0.472653 -3.888066 3.160288 -0.087060 0.996950 0.090760 -3.664542 -1.632296 -6.348965 6.467905 3.574828 1.480694 1.857277 2.858051 8.902871 -0.346874 -1.489842 -5.572435 -3.245493 9.561371 25.903371 -3.783280 13.202130 12.745280 -8.716418 7.099341 1.570230 -36.442391 -3.668094 -4.847618 16.875695 -74.769954 -14.376576 -4.323874 3.404019 -0.285090 0.816890 -0.736370 0.054490 9.623913 -6.329946 1.952017 53.664672 -5.920224 -18.453954 -36.639842 59.227976 -18.616024 1.665039 -1.474232 -0.559710 0.181370 0.401940 0.003480 
0.895000 17.609260 -1.618000 -3.305767 12.555948 3.125191 -15.213130 13.261725 2.714734 11.246689 -1.849181 -21.398021 -4.861982 5.810196 14.202314 -0.520163 4.270780 3.233640 -0.536330 -0.678650 -0.439530 18.244182 -11.028018 2.194595 -8.727417 1.009518 -14.185586 4.479275 -4.820823 14.587165 0.480167 -3.883020 3.158689 -0.082260 0.999740 0.089940 -3.663092 -1.644787 -6.343575 6.481666 3.445514 1.452821 1.650722 2.735114 8.857010 -0.307532 -1.515433 -5.489226 -3.267350 9.827901 25.795516 -3.811400 13.436690 12.696110 -8.996938 6.952904 1.396116 -36.178473 -3.784091 -5.179841 20.993284 -73.335586 -16.568117 -4.325201 3.329152 -0.289630 0.823080 -0.742810 0.049180 9.819090 -6.207615 1.945850 53.755303 -5.583806 -18.330326 -36.547452 59.063247 -18.583632 1.664475 -1.476055 -0.564140 0.181530 0.407870 -0.000410 
0.902150 17.609680 -1.617230 -3.322767 12.537644 3.226174 -15.216174 13.267560 2.716043 11.168277 -1.876762 -21.450502 -4.783961 5.774204 14.172451 -0.532312 4.264442 3.237057 -0.534890 -0.674940 -0.438610 18.243243 -11.015553 2.191894 -8.702916 1.057408 -14.416674 4.496360 -4.829906 14.767121 0.485525 -3.879369 3.156311 -0.073890 1.007100 0.089840 -3.656645 -1.676616 -6.335138 6.450208 3.273090 1.434930 1.374051 2.586287 8.755970 -0.296146 -1.624768 -5.372214 -3.435034 10.197377 25.622140 -3.789490 13.661970 12.566180 -9.315562 6.848286 1.160549 -35.928432 -4.042382 -5.538629 26.796150 -71.375852 -19.434492 -4.322260 3.210277 -0.292710 0.830080 -0.747660 0.048450 10.097877 -6.067529 1.935189 53.913955 -5.185543 -18.200848 -36.571096 58.971445 -18.647837 1.660521 -1.473691 -0.569600 0.187980 0.411190 -0.002230 
0.910010 17.607380 -1.615440 -3.366888 12.492822 3.345925 -15.215238 13.267487 2.717083 11.114033 -1.904622 -21.500063 -4.721614 5.734717 14.110641 -0.541799 4.249008 3.240450 -0.525950 -0.658970 -0.434830 18.246605 -11.002679 2.191753 -8.689122 1.115521 -14.707769 4.602731 -4.862283 14.991789 0.488975 -3.878937 3.152945 -0.059880 1.008310 0.087550 -3.662028 -1.696678 -6.328306 6.550704 3.062081 1.433728 0.919087 2.422365 8.589580 -0.259166 -1.773815 -5.224671 -3.663521 10.617166 25.403446 -3.729990 13.900420 12.357740 -9.677036 6.808120 0.865844 -35.621566 -4.458398 -5.803033 33.792100 -69.121032 -22.593805 -4.311566 3.059572 -0.298740 0.834040 -0.749900 0.049090 10.351101 -5.987929 1.910876 54.110539 -4.792457 -18.016459 -36.129130 58.677215 -18.401785 1.663353 -1.483437 -0.570170 0.192660 0.409180 -0.003080 
0.914940 17.602500 -1.613620 -3.397533 12.452850 3.499875 -15.216634 13.264744 2.724762 11.093381 -1.943281 -21.629027 -4.726776 5.723380 14.095356 -0.544794 4.249844 3.242637 -0.523280 -0.652350 -0.434370 18.248818 -10.985084 2.190061 -8.614758 1.186646 -15.046553 4.644010 -4.877736 15.253604 0.496524 -3.876142 3.150446 -0.051090 1.018310 0.087960 -3.661703 -1.723239 -6.322913 6.612445 2.836841 1.421160 0.438812 2.249109 8.408572 -0.206543 -1.913598 -5.092945 -3.873038 11.016946 25.116186 -3.651650 14.125910 12.351500 -10.079257 6.737899 0.574425 -35.278548 -5.056172 -5.875115 41.605347 -66.291063 -25.652456 -4.308078 2.884966 -0.309980 0.843250 -0.757060 0.051230 10.619554 -5.891542 1.912231 54.339828 -4.441682 -17.879047 -35.779224 58.561734 -18.285710 1.666054 -1.493352 -0.572070 0.196440 0.408330 -0.000710 
0.920090 17.596820 -1.610320 -3.406778 12.421921 3.637716 -15.215995 13.267522 2.731263 11.016243 -1.982540 -21.724841 -4.688924 5.693868 14.074358 -0.544416 4.240588 3.250924 -0.521320 -0.648210 -0.437710 18.251412 -10.974256 2.188836 -8.520633 1.246692 -15.341966 4.580445 -4.866349 15.490144 0.502311 -3.865522 3.152764 -0.045780 1.028850 0.087290 -3.666166 -1.747861 -6.321394 6.743623 2.594799 1.441678 -0.157580 2.079126 8.208263 -0.126630 -2.098779 -5.031915 -4.169637 11.393584 24.876497 -3.459700 14.240690 12.436750 -10.448417 6.643296 0.336318 -34.978026 -5.844877 -5.644367 49.570106 -62.716064 -28.227086 -4.311847 2.722826 -0.317150 0.847740 -0.762090 0.057500 10.796752 -5.746769 1.972705 54.641820 -4.170821 -17.821262 -35.287060 58.538059 -18.140145 1.670893 -1.502291 -0.573980 0.201450 0.406130 0.004490 
0.924650 17.590880 -1.607280 -3.414890 12.428689 3.728400 -15.216456 13.279185 2.741218 10.953693 -2.018828 -21.856445 -4.644506 5.677635 14.150012 -0.547998 4.228594 3.253123 -0.507790 -0.630140 -0.432930 18.251698 -10.960507 2.186867 -8.435225 1.294547 -15.577076 4.526423 -4.863807 15.745493 0.499770 -3.850047 3.155553 -0.035310 1.025560 0.081710 -3.667220 -1.796199 -6.327387 6.917923 2.319081 1.545887 -0.711679 1.889084 8.025824 -0.091260 -2.383897 -5.012928 -4.676261 11.762344 24.758916 -3.249230 14.266410 12.267610 -10.749470 6.570431 0.154780 -34.763898 -6.852559 -5.091062 56.708670 -58.414609 -29.953334 -4.330023 2.627270 -0.312650 0.839180 -0.756930 0.063560 10.983812 -5.547244 2.046154 54.848241 -3.953439 -17.824889 -34.808227 58.720839 -18.062464 1.672615 -1.503152 -0.573340 0.208770 0.398750 0.007000 
0.928470 17.583090 -1.604010 -3.356926 12.413827 3.844080 -15.218715 13.301652 2.751171 10.796584 -2.059182 -21.976178 -4.541218 5.639232 14.224326 -0.554722 4.203612 3.258345 -0.491980 -0.607540 -0.431300 18.248890 -10.945713 2.182946 -8.407485 1.338168 -15.822085 4.426342 -4.848333 15.994508 0.497773 -3.829464 3.160780 -0.022140 1.020410 0.073670 -3.661381 -1.866306 -6.332109 7.044529 2.035112 1.674592 -1.237979 1.705332 7.799149 -0.109257 -2.766011 -5.008342 -5.368555 12.129699 24.594391 -2.979890 14.165270 12.038630 -10.811759 6.688478 -0.010003 -34.699005 -7.971835 -4.356642 62.685384 -53.953943 -30.987551 -4.368849 2.613997 -0.306760 0.827480 -0.751290 0.070210 11.034621 -5.453661 2.111724 54.966752 -3.813030 -17.817956 -33.639850 59.236879 -17.732738 1.672708 -1.511573 -0.571890 0.217980 0.392210 0.010560 
0.932780 17.573410 -1.600710 -3.221512 12.434960 3.983377 -15.223940 13.332148 2.763676 10.543010 -2.115654 -22.113371 -4.423589 5.592766 14.339017 -0.563097 4.177222 3.263578 -0.465690 -0.574170 -0.425570 18.242844 -10.927889 2.172777 -8.481248 1.378042 -16.087850 4.316786 -4.843044 16.321070 0.490334 -3.814887 3.159152 -0.002840 1.014860 0.071510 -3.647359 -1.961732 -6.331478 7.097966 1.732891 1.812711 -1.686226 1.509724 7.538955 -0.220814 -3.228646 -4.968348 -6.222525 12.525027 24.342704 -2.633850 13.935300 11.657350 -10.703293 6.969074 -0.203957 -34.689780 -9.179183 -3.588250 67.688330 -49.564787 -31.480250 -4.414521 2.661663 -0.300110 0.814100 -0.741500 0.081020 11.094116 -5.458960 2.132807 54.937633 -3.762844 -17.803549 -32.430389 59.986408 -17.429736 1.668260 -1.525483 -0.565480 0.227580 0.382850 0.016580 
0.936800 17.563740 -1.596750 -3.078716 12.344479 4.096159 -15.226164 13.368550 2.772712 10.289318 -2.149311 -22.133306 -4.299834 5.532763 14.362821 -0.570019 4.140305 3.269296 -0.437330 -0.537490 -0.419770 18.237823 -10.913551 2.163926 -8.598496 1.411046 -16.324331 4.186070 -4.826909 16.606593 0.480145 -3.791749 3.159213 0.016260 1.002580 0.066310 -3.638053 -2.059080 -6.334665 7.198547 1.457879 2.010237 -2.150339 1.353809 7.240904 -0.372963 -3.759273 -4.968822 -7.225757 12.944288 24.156718 -2.171690 13.623220 11.198040 -10.473240 7.248664 -0.394788 -34.613166 -10.349065 -2.926343 71.992250 -45.259821 -31.479733 -4.447458 2.736448 -0.288860 0.792300 -0.726760 0.090520 11.100597 -5.416118 2.196883 54.797097 -3.825058 -17.826580 -30.977913 60.836131 -17.026438 1.667281 -1.538834 -0.556650 0.238160 0.373790 0.022850 
0.939930 17.554520 -1.592740 -2.994979 12.161794 4.178200 -15.226007 13.405196 2.778441 10.120637 -2.162649 -22.107423 -4.185170 5.478851 14.361831 -0.582944 4.113120 3.273452 -0.408350 -0.501420 -0.413530 18.235291 -10.897180 2.157499 -8.701532 1.452589 -16.562349 4.138139 -4.839615 16.955135 0.468342 -3.775507 3.157142 0.038320 0.992740 0.056430 -3.634096 -2.157094 -6.338802 7.356618 1.186452 2.238591 -2.544718 1.212367 6.903862 -0.596930 -4.315668 -4.956577 -8.304117 13.336602 23.968506 -1.615010 13.168170 10.650810 -10.129286 7.555964 -0.578745 -34.559316 -11.500836 -2.346814 75.975328 -40.936560 -31.064383 -4.469136 2.814882 -0.271800 0.768070 -0.712560 0.100880 11.126781 -5.383027 2.215271 54.450794 -3.893836 -17.754861 -29.205368 61.214152 -16.277673 1.673468 -1.555546 -0.554290 0.257430 0.365550 0.028110 
